<svg width="40" height="20" viewBox="0 0 40 20" fill="none" xmlns="http://www.w3.org/2000/svg">
<path d="M28.6452 4.42653C29.456 4.42653 30.268 4.41053 31.0775 4.43453C31.3708 4.44387 31.6735 4.51587 31.9509 4.61588C32.6109 4.85457 32.9323 5.40662 32.867 6.10802C32.8043 6.78275 32.5629 7.36414 32.0149 7.79485C31.8509 7.92419 31.8375 8.08154 31.9762 8.20688C32.2962 8.49491 32.3562 8.86161 32.2949 9.25765C32.2309 9.67369 32.1482 10.0884 32.0709 10.5018C32.0295 10.7231 31.9295 10.8058 31.7055 10.8058C31.2001 10.8071 30.6947 10.8071 30.1894 10.8058C29.9587 10.8058 29.8907 10.7205 29.932 10.4951C29.988 10.1897 30.044 9.88437 30.0974 9.57768C30.1107 9.50167 30.1107 9.423 30.1134 9.34566C30.1174 9.19898 30.0347 9.11897 29.8987 9.09363C29.8173 9.07897 29.7333 9.07363 29.6507 9.0723C28.9279 9.07097 28.2065 9.07097 27.4838 9.0723C27.2238 9.0723 27.1251 9.15897 27.0797 9.415C27.0144 9.78036 26.9477 10.1457 26.8797 10.5111C26.8411 10.7205 26.741 10.8031 26.525 10.8045C26.0357 10.8058 25.5476 10.8045 25.0582 10.8045C24.7569 10.8045 24.6995 10.7351 24.7542 10.4311C24.8889 9.69502 25.0236 8.95762 25.1596 8.22155C25.3676 7.08678 25.5756 5.95201 25.7836 4.81724C25.8476 4.46654 25.909 4.41187 26.2637 4.41187C27.0584 4.41187 27.8518 4.41187 28.6466 4.41187C28.6466 4.41587 28.6466 4.41987 28.6466 4.42387L28.6452 4.42653ZM28.9653 7.20279C29.2653 7.20279 29.564 7.20279 29.864 7.20279C30.4281 7.20279 30.4601 7.17612 30.5627 6.61874C30.6001 6.41605 30.5134 6.28137 30.3094 6.27871C29.5333 6.2707 28.7572 6.2707 27.9798 6.27871C27.7625 6.28137 27.6345 6.40805 27.5891 6.61874C27.5718 6.70008 27.5558 6.78142 27.5451 6.86409C27.5131 7.09345 27.6025 7.20012 27.8332 7.20146C28.2105 7.20412 28.5879 7.20146 28.9639 7.20146L28.9653 7.20279Z" fill="#767676"/>
<path d="M20.1577 10.8298C19.4724 10.8098 18.8056 10.7218 18.1749 10.4404C17.0815 9.95237 16.5387 8.94027 16.7254 7.75883C16.9361 6.42137 17.6749 5.47728 18.887 4.9199C20.2258 4.30384 21.6205 4.22917 23.026 4.67187C24.0714 5.00124 24.7235 5.81331 24.7715 6.79607C24.8182 7.76683 24.5155 8.62558 23.8688 9.34964C23.158 10.1471 22.2353 10.5538 21.1992 10.7231C20.8551 10.7791 20.5044 10.7951 20.1577 10.8298ZM20.4938 8.9376L20.4978 8.91894C20.6031 8.91094 20.7085 8.9096 20.8125 8.89493C21.4059 8.81359 21.9166 8.58291 22.2113 8.02952C22.5686 7.35612 22.422 6.55605 21.4592 6.35203C20.9845 6.25202 20.5191 6.28802 20.0711 6.47071C19.587 6.66939 19.2523 7.01209 19.1243 7.53214C18.9736 8.1482 19.2497 8.64424 19.8577 8.82293C20.0631 8.88293 20.2804 8.90027 20.4924 8.9376H20.4938Z" fill="#767676"/>
<path d="M3.69887 8.46958C3.96556 8.46958 4.23225 8.46958 4.49894 8.46958C4.62162 8.46958 4.70429 8.51891 4.71496 8.64959C4.73496 8.89495 4.89498 9.02563 5.10967 9.0603C5.47503 9.11897 5.84573 9.16564 6.2151 9.17364C6.52313 9.18031 6.83383 9.12964 7.14185 9.0923C7.2312 9.08163 7.33787 9.04696 7.39655 8.98429C7.46055 8.91628 7.50456 8.80427 7.50456 8.71093C7.50456 8.66026 7.40055 8.57759 7.33387 8.56559C6.99517 8.50825 6.65514 8.45624 6.31244 8.42957C5.64838 8.37757 4.98165 8.35357 4.33893 8.15755C4.17491 8.10821 4.01356 8.0442 3.86022 7.9682C3.25216 7.6655 3.00014 7.16279 3.08948 6.49073C3.19349 5.69865 3.6522 5.18394 4.34693 4.85057C4.97632 4.54654 5.65505 4.4412 6.34845 4.41987C7.13385 4.39586 7.91659 4.4292 8.66466 4.70123C9.23805 4.90925 9.67542 5.26128 9.7901 5.90134C9.81677 6.05335 9.82077 6.2107 9.8141 6.36538C9.8061 6.54673 9.69409 6.65474 9.51541 6.65741C8.98203 6.66274 8.44864 6.66007 7.91526 6.65741C7.79525 6.65741 7.71257 6.60274 7.70591 6.46939C7.69657 6.29204 7.59123 6.1827 7.42988 6.1627C7.02984 6.11202 6.62714 6.07069 6.22444 6.04802C6.03242 6.03735 5.83773 6.07069 5.64438 6.09469C5.55237 6.10669 5.4497 6.12402 5.37636 6.17336C5.30702 6.22003 5.22968 6.31071 5.22701 6.38538C5.22434 6.44139 5.32569 6.54006 5.39369 6.55473C5.67505 6.61607 5.95908 6.66541 6.24577 6.69341C7.00718 6.77075 7.77525 6.79209 8.52065 6.99211C8.61666 7.01744 8.71133 7.04944 8.80468 7.08545C9.48874 7.35214 9.75943 7.84018 9.66342 8.56959C9.51274 9.70702 8.83135 10.3631 7.75925 10.6124C6.50446 10.9031 5.23768 10.8991 3.98156 10.5898C3.56552 10.4871 3.18815 10.3004 2.91213 9.95505C2.6201 9.58835 2.55743 9.16297 2.60943 8.71227C2.62677 8.55892 2.74945 8.47091 2.91746 8.46958C3.17882 8.46691 3.44018 8.46958 3.7002 8.46958H3.69887Z" fill="#767676"/>
<path d="M35.8459 10.8071C34.8738 10.8071 33.9017 10.8071 32.9296 10.8071C32.6523 10.8071 32.5949 10.7404 32.6443 10.4657C32.9923 8.55491 33.3403 6.64539 33.6884 4.73588C33.7337 4.49186 33.8257 4.41452 34.0724 4.41452C35.9553 4.41452 37.8394 4.41452 39.7223 4.41452C39.9676 4.41452 40.0303 4.49053 39.9876 4.73055C39.9196 5.10792 39.8516 5.48395 39.7823 5.85999C39.7356 6.11201 39.6463 6.18535 39.3849 6.18535C38.2181 6.18535 37.0514 6.18535 35.8846 6.18535C35.6526 6.18535 35.5405 6.28003 35.5085 6.49605C35.4779 6.69873 35.5512 6.78807 35.7606 6.78941C36.322 6.79207 36.8833 6.79474 37.4434 6.78674C37.5914 6.78407 37.6941 6.82541 37.7848 6.94276C37.9061 7.10144 38.0448 7.24545 38.1741 7.3988C38.2928 7.54014 38.2901 7.65215 38.1488 7.77083C37.9074 7.97485 37.6621 8.1762 37.4101 8.36689C37.3554 8.40823 37.266 8.42023 37.1927 8.42156C36.6206 8.42556 36.0486 8.42289 35.4765 8.42423C35.2299 8.42423 35.0845 8.56957 35.0858 8.8176C35.0858 8.93761 35.1432 9.01895 35.2725 9.03095C35.3272 9.03628 35.3832 9.03362 35.4392 9.03362C36.4953 9.03362 37.5501 9.03362 38.6062 9.03362C38.8195 9.03362 38.8675 9.06962 38.9075 9.28164C38.9769 9.64701 39.0449 10.0124 39.1089 10.3791C39.1609 10.6831 39.0555 10.8058 38.7475 10.8058C37.7808 10.8058 36.814 10.8058 35.8472 10.8058L35.8459 10.8071Z" fill="#767676"/>
<path d="M13.8425 4.41452C14.8586 4.41452 15.8747 4.41452 16.8908 4.41452C17.1722 4.41452 17.2282 4.47853 17.1788 4.75188C17.1042 5.16659 17.0281 5.5813 16.9495 5.99467C16.9015 6.24669 16.8108 6.3187 16.5508 6.3187C16.0174 6.3187 15.484 6.3187 14.952 6.3187C14.6826 6.3187 14.6613 6.34137 14.6119 6.61339C14.3706 7.93885 14.1239 9.26297 13.8852 10.5898C13.8545 10.7578 13.7705 10.8098 13.6132 10.8084C13.0464 10.8044 12.4811 10.8084 11.9143 10.8071C11.669 10.8071 11.6076 10.7351 11.6516 10.4911C11.7517 9.94037 11.853 9.38965 11.9543 8.83893C12.0917 8.0922 12.2317 7.34546 12.369 6.59872C12.4064 6.39337 12.345 6.32003 12.1344 6.32003C11.573 6.32003 11.0129 6.32003 10.4515 6.32003C10.1755 6.32003 10.1142 6.24269 10.1635 5.97467C10.2382 5.5773 10.3102 5.17859 10.3822 4.77989C10.4355 4.47986 10.5102 4.41452 10.8116 4.41452C11.8223 4.41452 12.8331 4.41452 13.8438 4.41452H13.8425Z" fill="#767676"/>
<path d="M23.2967 14.2354C23.3221 14.1901 23.3501 14.1461 23.3728 14.0994C23.6008 13.6247 23.8288 13.15 24.0528 12.6726C24.0982 12.5753 24.1568 12.5326 24.2688 12.5339C24.7302 12.5393 25.1903 12.5393 25.6516 12.5339C25.7876 12.5326 25.825 12.5753 25.7996 12.7113C25.6556 13.4967 25.5156 14.2834 25.3823 15.0702C25.3623 15.1862 25.3263 15.2329 25.2036 15.2275C24.9982 15.2182 24.7929 15.2209 24.5875 15.2275C24.4729 15.2302 24.4449 15.1928 24.4662 15.0795C24.5649 14.5515 24.6582 14.0207 24.7489 13.4914C24.7569 13.4407 24.7316 13.3847 24.7209 13.3313C24.6782 13.3687 24.6209 13.3967 24.5969 13.4434C24.3102 13.9874 24.0248 14.5341 23.7461 15.0822C23.6915 15.1888 23.6301 15.2369 23.5048 15.2315C23.2607 15.2209 23.0154 15.2235 22.7714 15.2302C22.6514 15.2329 22.594 15.1995 22.5727 15.0688C22.4913 14.5488 22.3967 14.0301 22.3073 13.51C22.3033 13.4887 22.3047 13.462 22.2927 13.446C22.2633 13.406 22.226 13.37 22.1926 13.3313C22.1673 13.3713 22.1286 13.4087 22.1206 13.4514C22.0686 13.7287 22.022 14.0087 21.974 14.2874C21.9286 14.5555 21.8793 14.8221 21.8379 15.0915C21.8219 15.1915 21.7819 15.2342 21.6753 15.2302C21.4752 15.2222 21.2752 15.2249 21.0752 15.2302C20.9672 15.2329 20.9432 15.1942 20.9619 15.0902C21.1059 14.2874 21.2459 13.4847 21.3846 12.6806C21.4032 12.5739 21.4526 12.5353 21.5633 12.5366C21.9846 12.5419 22.4073 12.5419 22.83 12.5366C22.9541 12.5353 23.0101 12.5793 23.0247 12.7046C23.0807 13.162 23.1447 13.618 23.2074 14.0741C23.2141 14.1261 23.2287 14.1781 23.2394 14.2301C23.2581 14.2328 23.2754 14.2368 23.2941 14.2394L23.2967 14.2354Z" fill="#767676"/>
<path d="M37.6087 12.5326C37.7647 12.5739 37.9128 12.6006 38.0514 12.6526C38.4008 12.7833 38.4075 13.0287 38.3621 13.3153C38.3568 13.3487 38.2754 13.3927 38.2288 13.394C37.9848 13.402 37.7407 13.398 37.4847 13.398C37.4847 13.218 37.3367 13.202 37.19 13.1993C36.9073 13.194 36.6233 13.1967 36.3406 13.1993C36.2859 13.1993 36.2259 13.2047 36.1779 13.2273C36.1339 13.2473 36.1019 13.294 36.0646 13.3287C36.1032 13.3607 36.1379 13.418 36.1793 13.422C36.4553 13.4527 36.7313 13.4687 37.0073 13.498C37.266 13.526 37.5287 13.5447 37.7807 13.6007C38.2061 13.6967 38.3288 13.8901 38.2755 14.3221C38.2034 14.9035 37.9434 15.1568 37.3087 15.2182C37.1447 15.2342 37.0793 15.2889 37.0767 15.4395C37.074 15.5769 36.9993 15.6129 36.8713 15.6102C36.538 15.6036 36.2046 15.6089 35.8712 15.6076C35.6685 15.6076 35.6645 15.6009 35.7019 15.3982C35.7112 15.3489 35.7152 15.2995 35.7232 15.2409C35.5912 15.2129 35.4605 15.1929 35.3352 15.1555C35.0018 15.0568 34.8498 14.7701 34.9551 14.4381C34.9658 14.4021 35.0218 14.3594 35.0578 14.3568C35.2845 14.3434 35.5125 14.3381 35.7405 14.3408C35.7765 14.3408 35.8392 14.3874 35.8419 14.4154C35.8512 14.5448 35.9486 14.5555 36.0326 14.5568C36.4099 14.5635 36.7873 14.5595 37.1647 14.5581C37.186 14.5581 37.2154 14.5568 37.2287 14.5435C37.2794 14.4941 37.3247 14.4394 37.3727 14.3861C37.326 14.3461 37.2834 14.2794 37.2327 14.2728C36.9807 14.2381 36.726 14.2208 36.4713 14.1941C36.1793 14.1634 35.8832 14.1474 35.5965 14.0901C35.2098 14.0114 35.1018 13.8394 35.1432 13.4487C35.2005 12.9046 35.4552 12.6473 36.0339 12.5699C36.1726 12.5513 36.2486 12.5126 36.2499 12.3633C36.2499 12.1979 36.3339 12.1379 36.5046 12.1459C36.8153 12.1592 37.126 12.1499 37.438 12.1499C37.6647 12.1499 37.6714 12.1592 37.6301 12.3899C37.6207 12.4379 37.6154 12.4859 37.6087 12.5339V12.5326Z" fill="#767676"/>
<path d="M13.1345 15.1929C13.1612 15.0289 13.1852 14.8555 13.2159 14.6835C13.3332 14.0181 13.4559 13.3527 13.5692 12.686C13.5879 12.578 13.6252 12.5326 13.7386 12.5353C14.432 12.5473 15.1254 12.5486 15.8188 12.5673C15.9881 12.5713 16.1601 12.61 16.3241 12.658C16.7749 12.7913 16.9642 13.0313 16.9349 13.5007C16.9149 13.8234 16.8535 14.1501 16.7615 14.4608C16.6162 14.9529 16.2121 15.1595 15.7441 15.1822C14.892 15.2222 14.0373 15.2115 13.1825 15.2222C13.1732 15.2222 13.1638 15.2115 13.1332 15.1942L13.1345 15.1929ZM15.0334 13.306C15.0334 13.306 15.0334 13.3154 15.0334 13.3207C14.8613 13.3207 14.6893 13.326 14.5186 13.3194C14.4093 13.3154 14.36 13.3554 14.344 13.4647C14.3013 13.7434 14.2546 14.0221 14.1946 14.2981C14.1653 14.4315 14.2186 14.4515 14.3293 14.4501C14.6347 14.4475 14.9387 14.4555 15.244 14.4475C15.7961 14.4328 15.9308 14.3048 15.9948 13.7554C15.9961 13.7394 15.9988 13.7221 16.0001 13.7061C16.0121 13.4954 15.9428 13.39 15.7308 13.3607C15.5014 13.3287 15.268 13.3234 15.0374 13.306H15.0334Z" fill="#767676"/>
<path d="M30.9974 15.2262C31.0521 14.9048 31.1014 14.6168 31.1521 14.3288C31.2481 13.7821 31.3508 13.2367 31.4401 12.69C31.4601 12.5686 31.5095 12.5339 31.6242 12.5353C31.9962 12.5393 32.3682 12.5419 32.7403 12.5353C32.8683 12.5326 32.9283 12.586 32.9736 12.698C33.1923 13.2313 33.4177 13.7621 33.6417 14.2941C33.6617 14.3421 33.687 14.3875 33.7484 14.4275C33.791 14.1834 33.8337 13.9407 33.875 13.6967C33.9324 13.358 33.9924 13.0193 34.0431 12.678C34.0591 12.574 34.1017 12.5339 34.2044 12.5366C34.3938 12.5406 34.5818 12.5433 34.7711 12.5366C34.8991 12.5326 34.9378 12.5726 34.9138 12.7033C34.7698 13.5007 34.6298 14.2981 34.4924 15.0955C34.4751 15.1982 34.4311 15.2315 34.3271 15.2302C33.9444 15.2249 33.5603 15.2249 33.1776 15.2302C33.0643 15.2315 33.011 15.1915 32.9683 15.0875C32.7523 14.5648 32.5296 14.0448 32.3096 13.5247C32.2869 13.47 32.2589 13.4167 32.1909 13.362C32.1642 13.5087 32.1349 13.6541 32.1109 13.8007C32.0389 14.2221 31.9642 14.6421 31.9002 15.0649C31.8802 15.1955 31.8255 15.2382 31.6935 15.2315C31.4735 15.2209 31.2521 15.2289 30.9974 15.2289V15.2262Z" fill="#767676"/>
<path d="M18.895 15.3049C18.6283 15.2582 18.3562 15.2328 18.0989 15.1582C17.6602 15.0302 17.3201 14.7701 17.2161 14.2981C17.1041 13.786 17.2548 13.3433 17.6415 12.9886C17.9015 12.7499 18.2189 12.6246 18.5629 12.5566C18.999 12.4699 19.4337 12.4686 19.8644 12.5846C20.3818 12.7233 20.7845 13.002 20.8618 13.5714C20.9418 14.1527 20.7045 14.6128 20.2177 14.9355C19.8204 15.1982 19.3683 15.2729 18.8963 15.3062L18.895 15.3049ZM19.0856 13.31C18.863 13.322 18.6536 13.3647 18.4789 13.5087C18.2002 13.7394 18.2096 14.1461 18.4976 14.3314C18.7923 14.5221 19.3297 14.4808 19.591 14.2501C19.9151 13.9621 19.823 13.5007 19.4123 13.37C19.3083 13.3367 19.1963 13.33 19.087 13.3113L19.0856 13.31Z" fill="#767676"/>
<path d="M25.6596 15.2262C25.7116 15.1302 25.7369 15.0782 25.7676 15.0288C26.2397 14.2567 26.7144 13.4873 27.1811 12.7113C27.2598 12.5806 27.3478 12.5273 27.5011 12.5326C27.8558 12.5433 28.2118 12.5393 28.5679 12.5339C28.6826 12.5326 28.7386 12.5753 28.7666 12.6859C28.9679 13.482 29.1719 14.2768 29.3786 15.0715C29.4093 15.1915 29.3826 15.2328 29.2573 15.2288C29.0573 15.2222 28.8572 15.2195 28.6572 15.2288C28.5252 15.2355 28.4559 15.1915 28.4479 15.0582C28.4399 14.9061 28.3532 14.8688 28.2132 14.8715C27.8238 14.8781 27.4358 14.8795 27.0464 14.8715C26.9104 14.8688 26.821 14.9075 26.7757 15.0368C26.7224 15.1888 26.6184 15.2395 26.4557 15.2302C26.2077 15.2155 25.9596 15.2262 25.6596 15.2262ZM27.2584 14.1687C27.5798 14.1687 27.8611 14.1687 28.1438 14.1687C28.2372 14.1687 28.2492 14.1167 28.2305 14.0341C28.1878 13.8514 28.1585 13.6647 28.1132 13.482C28.0985 13.4273 28.0465 13.3407 28.0105 13.3407C27.9025 13.3393 27.7398 13.3353 27.6945 13.3993C27.5344 13.6287 27.4144 13.8847 27.2598 14.1687H27.2584Z" fill="#767676"/>
<path d="M0.969319 10.8071C0.431935 10.8071 0.0572338 10.5258 0.00789591 10.0804C-0.0787788 9.29498 0.559947 8.67225 1.34269 8.7736C1.71605 8.82293 2.02275 8.97361 2.13076 9.36032C2.2521 9.79769 2.13209 10.1844 1.8054 10.4978C1.57471 10.7191 1.28668 10.8085 0.969319 10.8058V10.8071Z" fill="#767676"/>
<path d="M29.7213 15.2262C29.7813 14.8781 29.8347 14.5621 29.8893 14.2461C29.976 13.7487 30.0707 13.2527 30.148 12.7539C30.1747 12.5833 30.2387 12.5153 30.4147 12.5326C30.5801 12.5486 30.7481 12.5433 30.9148 12.5326C31.0601 12.5246 31.1014 12.5766 31.0748 12.7179C30.9454 13.4273 30.8227 14.1381 30.6934 14.8475C30.6241 15.2248 30.6214 15.2248 30.2374 15.2248H29.7213V15.2262Z" fill="#767676"/>
</svg>
